{
	"asset":{
		"generator":"Khronos glTF Blender I/O v4.3.47",
		"version":"2.0"
	},
	"scene":0,
	"scenes":[
		{
			"name":"Scene",
			"nodes":[
				0
			]
		}
	],
	"nodes":[
		{
			"mesh":0,
			"name":"fence"
		}
	],
	"materials":[
		{
			"doubleSided":false,
			"name":"wood_birch",
			"pbrMetallicRoughness":{
				"baseColorTexture":{
					"index":0
				},
				"metallicFactor":0,
				"roughnessFactor":0.5
			}
		},
		{
			"doubleSided":false,
			"name":"Material.003",
			"pbrMetallicRoughness":{
				"baseColorTexture":{
					"index":1
				},
				"metallicFactor":0,
				"roughnessFactor":0.5
			}
		},
		{
			"doubleSided":false,
			"name":"weaved_fence",
			"pbrMetallicRoughness":{
				"baseColorTexture":{
					"index":2
				},
				"metallicFactor":0,
				"roughnessFactor":0.5
			}
		}
	],
	"meshes":[
		{
			"name":"fence",
			"primitives":[
				{
					"attributes":{
						"POSITION":0,
						"NORMAL":1,
						"TEXCOORD_0":2
					},
					"indices":3,
					"material":0
				},
				{
					"attributes":{
						"POSITION":4,
						"NORMAL":5,
						"TEXCOORD_0":6
					},
					"indices":7,
					"material":1
				},
				{
					"attributes":{
						"POSITION":8,
						"NORMAL":9,
						"TEXCOORD_0":10
					},
					"indices":11,
					"material":2
				}
			]
		}
	],
	"textures":[
		{
			"sampler":0,
			"source":0
		},
		{
			"sampler":0,
			"source":1
		},
		{
			"sampler":0,
			"source":2
		}
	],
	"images":[
		{
			"mimeType":"image/png",
			"name":"wood_birch",
			"uri":"wood_birch.png"
		},
		{
			"mimeType":"image/png",
			"name":"wood",
			"uri":"wood.png"
		},
		{
			"mimeType":"image/png",
			"name":"wattle",
			"uri":"wattle.png"
		}
	],
	"accessors":[
		{
			"bufferView":0,
			"componentType":5126,
			"count":5524,
			"max":[
				2.560194253921509,
				1.5111541748046875,
				0.1562853753566742
			],
			"min":[
				-2.5603463649749756,
				0.0071579813957214355,
				-0.1251169741153717
			],
			"type":"VEC3"
		},
		{
			"bufferView":1,
			"componentType":5126,
			"count":5524,
			"type":"VEC3"
		},
		{
			"bufferView":2,
			"componentType":5126,
			"count":5524,
			"type":"VEC2"
		},
		{
			"bufferView":3,
			"componentType":5123,
			"count":8604,
			"type":"SCALAR"
		},
		{
			"bufferView":4,
			"componentType":5126,
			"count":218,
			"max":[
				2.283600330352783,
				1.5054216384887695,
				0.12577161192893982
			],
			"min":[
				-2.353562593460083,
				0.036358773708343506,
				-0.08093538880348206
			],
			"type":"VEC3"
		},
		{
			"bufferView":5,
			"componentType":5126,
			"count":218,
			"type":"VEC3"
		},
		{
			"bufferView":6,
			"componentType":5126,
			"count":218,
			"type":"VEC2"
		},
		{
			"bufferView":7,
			"componentType":5123,
			"count":396,
			"type":"SCALAR"
		},
		{
			"bufferView":8,
			"componentType":5126,
			"count":840,
			"max":[
				2.5041568279266357,
				1.4710111618041992,
				0.15182837843894958
			],
			"min":[
				-2.581982374191284,
				0.022618353366851807,
				-0.11265841126441956
			],
			"type":"VEC3"
		},
		{
			"bufferView":9,
			"componentType":5126,
			"count":840,
			"type":"VEC3"
		},
		{
			"bufferView":10,
			"componentType":5126,
			"count":840,
			"type":"VEC2"
		},
		{
			"bufferView":11,
			"componentType":5123,
			"count":1596,
			"type":"SCALAR"
		}
	],
	"bufferViews":[
		{
			"buffer":0,
			"byteLength":66288,
			"byteOffset":0,
			"target":34962
		},
		{
			"buffer":0,
			"byteLength":66288,
			"byteOffset":66288,
			"target":34962
		},
		{
			"buffer":0,
			"byteLength":44192,
			"byteOffset":132576,
			"target":34962
		},
		{
			"buffer":0,
			"byteLength":17208,
			"byteOffset":176768,
			"target":34963
		},
		{
			"buffer":0,
			"byteLength":2616,
			"byteOffset":193976,
			"target":34962
		},
		{
			"buffer":0,
			"byteLength":2616,
			"byteOffset":196592,
			"target":34962
		},
		{
			"buffer":0,
			"byteLength":1744,
			"byteOffset":199208,
			"target":34962
		},
		{
			"buffer":0,
			"byteLength":792,
			"byteOffset":200952,
			"target":34963
		},
		{
			"buffer":0,
			"byteLength":10080,
			"byteOffset":201744,
			"target":34962
		},
		{
			"buffer":0,
			"byteLength":10080,
			"byteOffset":211824,
			"target":34962
		},
		{
			"buffer":0,
			"byteLength":6720,
			"byteOffset":221904,
			"target":34962
		},
		{
			"buffer":0,
			"byteLength":3192,
			"byteOffset":228624,
			"target":34963
		}
	],
	"samplers":[
		{
			"magFilter":9729,
			"minFilter":9987
		}
	],
	"buffers":[
		{
			"byteLength":231816,
			"uri":"hut.bin"
		}
	]
}
