{
	"asset":{
		"generator":"Khronos glTF Blender I/O v4.3.47",
		"version":"2.0"
	},
	"scene":0,
	"scenes":[
		{
			"name":"Scene",
			"nodes":[
				0
			]
		}
	],
	"nodes":[
		{
			"mesh":0,
			"name":"Cube.001_cell.014",
			"scale":[
				1.1133008003234863,
				1.1133008003234863,
				1.1133008003234863
			],
			"translation":[
				-1.8641334772109985,
				1.544750690460205,
				-0.24591632187366486
			]
		}
	],
	"materials":[
		{
			"doubleSided":false,
			"name":"stone",
			"pbrMetallicRoughness":{
				"baseColorTexture":{
					"index":0
				},
				"metallicFactor":0,
				"roughnessFactor":0.5
			}
		}
	],
	"meshes":[
		{
			"name":"Cube.001_cell.013",
			"primitives":[
				{
					"attributes":{
						"POSITION":0,
						"NORMAL":1,
						"TEXCOORD_0":2
					},
					"indices":3,
					"material":0
				}
			]
		}
	],
	"textures":[
		{
			"sampler":0,
			"source":0
		}
	],
	"images":[
		{
			"mimeType":"image/png",
			"name":"stone",
			"uri":"stone.png"
		}
	],
	"accessors":[
		{
			"bufferView":0,
			"componentType":5126,
			"count":18250,
			"max":[
				5.149350643157959,
				1.5829696655273438,
				0.6041891574859619
			],
			"min":[
				-1.8156177997589111,
				-1.1789219379425049,
				-0.15620875358581543
			],
			"type":"VEC3"
		},
		{
			"bufferView":1,
			"componentType":5126,
			"count":18250,
			"type":"VEC3"
		},
		{
			"bufferView":2,
			"componentType":5126,
			"count":18250,
			"type":"VEC2"
		},
		{
			"bufferView":3,
			"componentType":5123,
			"count":18252,
			"type":"SCALAR"
		}
	],
	"bufferViews":[
		{
			"buffer":0,
			"byteLength":219000,
			"byteOffset":0,
			"target":34962
		},
		{
			"buffer":0,
			"byteLength":219000,
			"byteOffset":219000,
			"target":34962
		},
		{
			"buffer":0,
			"byteLength":146000,
			"byteOffset":438000,
			"target":34962
		},
		{
			"buffer":0,
			"byteLength":36504,
			"byteOffset":584000,
			"target":34963
		}
	],
	"samplers":[
		{
			"magFilter":9729,
			"minFilter":9987
		}
	],
	"buffers":[
		{
			"byteLength":620504,
			"uri":"wall.bin"
		}
	]
}
