{
	"asset":{
		"generator":"Khronos glTF Blender I/O v4.3.47",
		"version":"2.0"
	},
	"scene":0,
	"scenes":[
		{
			"name":"Scene",
			"nodes":[
				0
			]
		}
	],
	"nodes":[
		{
			"mesh":0,
			"name":"Plane.001",
			"scale":[
				2.7432284355163574,
				2.7432284355163574,
				2.7432284355163574
			]
		}
	],
	"materials":[
		{
			"doubleSided":false,
			"name":"dirt",
			"pbrMetallicRoughness":{
				"baseColorTexture":{
					"index":0
				},
				"metallicFactor":0
			}
		},
		{
			"doubleSided":false,
			"name":"daub",
			"normalTexture":{
				"index":1
			},
			"pbrMetallicRoughness":{
				"baseColorTexture":{
					"index":2
				},
				"metallicFactor":0
			}
		},
		{
			"doubleSided":false,
			"name":"wood_birch",
			"pbrMetallicRoughness":{
				"baseColorTexture":{
					"index":3
				},
				"metallicFactor":0,
				"roughnessFactor":0.5
			}
		},
		{
			"doubleSided":false,
			"name":"dark_wood",
			"pbrMetallicRoughness":{
				"baseColorTexture":{
					"index":4
				},
				"metallicFactor":0,
				"roughnessFactor":0.5
			}
		},
		{
			"doubleSided":false,
			"name":"weaved_fence",
			"pbrMetallicRoughness":{
				"baseColorTexture":{
					"index":5
				},
				"metallicFactor":0,
				"roughnessFactor":0.5
			}
		},
		{
			"doubleSided":false,
			"name":"bark_roof",
			"pbrMetallicRoughness":{
				"baseColorTexture":{
					"index":6
				},
				"metallicFactor":0,
				"roughnessFactor":0.894444465637207
			}
		}
	],
	"meshes":[
		{
			"name":"Plane.001",
			"primitives":[
				{
					"attributes":{
						"POSITION":0,
						"NORMAL":1,
						"TEXCOORD_0":2
					},
					"indices":3,
					"material":0
				},
				{
					"attributes":{
						"POSITION":4,
						"NORMAL":5,
						"TEXCOORD_0":6
					},
					"indices":7,
					"material":1
				},
				{
					"attributes":{
						"POSITION":8,
						"NORMAL":9,
						"TEXCOORD_0":10
					},
					"indices":11,
					"material":2
				},
				{
					"attributes":{
						"POSITION":12,
						"NORMAL":13,
						"TEXCOORD_0":14
					},
					"indices":15,
					"material":3
				},
				{
					"attributes":{
						"POSITION":16,
						"NORMAL":17,
						"TEXCOORD_0":18
					},
					"indices":19,
					"material":4
				},
				{
					"attributes":{
						"POSITION":20,
						"NORMAL":21,
						"TEXCOORD_0":22
					},
					"indices":23,
					"material":5
				}
			]
		}
	],
	"textures":[
		{
			"sampler":0,
			"source":0
		},
		{
			"sampler":0,
			"source":1
		},
		{
			"sampler":0,
			"source":2
		},
		{
			"sampler":0,
			"source":3
		},
		{
			"sampler":0,
			"source":4
		},
		{
			"sampler":0,
			"source":5
		},
		{
			"sampler":0,
			"source":6
		}
	],
	"images":[
		{
			"mimeType":"image/png",
			"name":"dirt",
			"uri":"indoor_dirt.png"
		},
		{
			"mimeType":"image/png",
			"name":"daub_normal",
			"uri":"daub_normal.png"
		},
		{
			"mimeType":"image/png",
			"name":"daub",
			"uri":"daub.png"
		},
		{
			"mimeType":"image/png",
			"name":"wood_birch",
			"uri":"wood_birch.png"
		},
		{
			"mimeType":"image/png",
			"name":"wood",
			"uri":"wood.png"
		},
		{
			"mimeType":"image/png",
			"name":"wattle",
			"uri":"wattle.png"
		},
		{
			"mimeType":"image/png",
			"name":"bark_roof",
			"uri":"bark_roof.png"
		}
	],
	"accessors":[
		{
			"bufferView":0,
			"componentType":5126,
			"count":7,
			"max":[
				1,
				0.0017704963684082031,
				0.9576100707054138
			],
			"min":[
				-0.8067930936813354,
				-0.00011038780212402344,
				-0.8818555474281311
			],
			"type":"VEC3"
		},
		{
			"bufferView":1,
			"componentType":5126,
			"count":7,
			"type":"VEC3"
		},
		{
			"bufferView":2,
			"componentType":5126,
			"count":7,
			"type":"VEC2"
		},
		{
			"bufferView":3,
			"componentType":5123,
			"count":9,
			"type":"SCALAR"
		},
		{
			"bufferView":4,
			"componentType":5126,
			"count":12504,
			"max":[
				1.0434929132461548,
				0.7690551280975342,
				0.973889946937561
			],
			"min":[
				-0.8673191070556641,
				-0.02078365348279476,
				-0.9168268442153931
			],
			"type":"VEC3"
		},
		{
			"bufferView":5,
			"componentType":5126,
			"count":12504,
			"type":"VEC3"
		},
		{
			"bufferView":6,
			"componentType":5126,
			"count":12504,
			"type":"VEC2"
		},
		{
			"bufferView":7,
			"componentType":5123,
			"count":58074,
			"type":"SCALAR"
		},
		{
			"bufferView":8,
			"componentType":5126,
			"count":25829,
			"max":[
				1.0682580471038818,
				1.2228569984436035,
				1.0698881149291992
			],
			"min":[
				-0.8432958126068115,
				-0.026366502046585083,
				-1.0155259370803833
			],
			"type":"VEC3"
		},
		{
			"bufferView":9,
			"componentType":5126,
			"count":25829,
			"type":"VEC3"
		},
		{
			"bufferView":10,
			"componentType":5126,
			"count":25829,
			"type":"VEC2"
		},
		{
			"bufferView":11,
			"componentType":5123,
			"count":43272,
			"type":"SCALAR"
		},
		{
			"bufferView":12,
			"componentType":5126,
			"count":892,
			"max":[
				1.0154879093170166,
				1.135707139968872,
				0.9620062112808228
			],
			"min":[
				-0.8425008654594421,
				-0.012542963027954102,
				-0.9018598198890686
			],
			"type":"VEC3"
		},
		{
			"bufferView":13,
			"componentType":5126,
			"count":892,
			"type":"VEC3"
		},
		{
			"bufferView":14,
			"componentType":5126,
			"count":892,
			"type":"VEC2"
		},
		{
			"bufferView":15,
			"componentType":5123,
			"count":1716,
			"type":"SCALAR"
		},
		{
			"bufferView":16,
			"componentType":5126,
			"count":2734,
			"max":[
				1.047649621963501,
				0.7745864391326904,
				0.9853826761245728
			],
			"min":[
				-0.8461942672729492,
				-0.01818951964378357,
				-0.9134239554405212
			],
			"type":"VEC3"
		},
		{
			"bufferView":17,
			"componentType":5126,
			"count":2734,
			"type":"VEC3"
		},
		{
			"bufferView":18,
			"componentType":5126,
			"count":2734,
			"type":"VEC2"
		},
		{
			"bufferView":19,
			"componentType":5123,
			"count":5538,
			"type":"SCALAR"
		},
		{
			"bufferView":20,
			"componentType":5126,
			"count":582,
			"max":[
				1.035651445388794,
				1.2419114112854004,
				1.0667028427124023
			],
			"min":[
				-0.8248348236083984,
				0.6850858926773071,
				-0.9954185485839844
			],
			"type":"VEC3"
		},
		{
			"bufferView":21,
			"componentType":5126,
			"count":582,
			"type":"VEC3"
		},
		{
			"bufferView":22,
			"componentType":5126,
			"count":582,
			"type":"VEC2"
		},
		{
			"bufferView":23,
			"componentType":5123,
			"count":2784,
			"type":"SCALAR"
		}
	],
	"bufferViews":[
		{
			"buffer":0,
			"byteLength":84,
			"byteOffset":0,
			"target":34962
		},
		{
			"buffer":0,
			"byteLength":84,
			"byteOffset":84,
			"target":34962
		},
		{
			"buffer":0,
			"byteLength":56,
			"byteOffset":168,
			"target":34962
		},
		{
			"buffer":0,
			"byteLength":18,
			"byteOffset":224,
			"target":34963
		},
		{
			"buffer":0,
			"byteLength":150048,
			"byteOffset":244,
			"target":34962
		},
		{
			"buffer":0,
			"byteLength":150048,
			"byteOffset":150292,
			"target":34962
		},
		{
			"buffer":0,
			"byteLength":100032,
			"byteOffset":300340,
			"target":34962
		},
		{
			"buffer":0,
			"byteLength":116148,
			"byteOffset":400372,
			"target":34963
		},
		{
			"buffer":0,
			"byteLength":309948,
			"byteOffset":516520,
			"target":34962
		},
		{
			"buffer":0,
			"byteLength":309948,
			"byteOffset":826468,
			"target":34962
		},
		{
			"buffer":0,
			"byteLength":206632,
			"byteOffset":1136416,
			"target":34962
		},
		{
			"buffer":0,
			"byteLength":86544,
			"byteOffset":1343048,
			"target":34963
		},
		{
			"buffer":0,
			"byteLength":10704,
			"byteOffset":1429592,
			"target":34962
		},
		{
			"buffer":0,
			"byteLength":10704,
			"byteOffset":1440296,
			"target":34962
		},
		{
			"buffer":0,
			"byteLength":7136,
			"byteOffset":1451000,
			"target":34962
		},
		{
			"buffer":0,
			"byteLength":3432,
			"byteOffset":1458136,
			"target":34963
		},
		{
			"buffer":0,
			"byteLength":32808,
			"byteOffset":1461568,
			"target":34962
		},
		{
			"buffer":0,
			"byteLength":32808,
			"byteOffset":1494376,
			"target":34962
		},
		{
			"buffer":0,
			"byteLength":21872,
			"byteOffset":1527184,
			"target":34962
		},
		{
			"buffer":0,
			"byteLength":11076,
			"byteOffset":1549056,
			"target":34963
		},
		{
			"buffer":0,
			"byteLength":6984,
			"byteOffset":1560132,
			"target":34962
		},
		{
			"buffer":0,
			"byteLength":6984,
			"byteOffset":1567116,
			"target":34962
		},
		{
			"buffer":0,
			"byteLength":4656,
			"byteOffset":1574100,
			"target":34962
		},
		{
			"buffer":0,
			"byteLength":5568,
			"byteOffset":1578756,
			"target":34963
		}
	],
	"samplers":[
		{
			"magFilter":9729,
			"minFilter":9987
		}
	],
	"buffers":[
		{
			"byteLength":1584324,
			"uri":"hut.bin"
		}
	]
}
